<?xml version="1.0" encoding="UTF-8"?>
<svg version="1.1" xmlns="http://www.w3.org/2000/svg" width="256" height="256">
<path d="M0 0 C0.78464532 0.00754043 1.56929064 0.01508087 2.37771308 0.0228498 C11.55438744 0.14663599 20.7132784 0.62846277 29.8755188 1.13043213 C31.80603655 1.23267734 33.73657412 1.33454905 35.66712952 1.43608093 C40.85059986 1.71020784 46.0336988 1.99079161 51.21670008 2.27363682 C54.46148192 2.45064849 57.70631738 2.62664608 60.95116806 2.80239105 C71.12500891 3.35390373 81.29859911 3.90977056 91.47188103 4.47149968 C103.18057842 5.11790787 114.88996326 5.74926397 126.600155 6.36799645 C135.68576748 6.84899796 144.77057753 7.34358806 153.85489643 7.84842658 C159.26810431 8.14893529 164.6814784 8.44366077 170.09576797 8.72406769 C175.1775807 8.98760449 180.25818605 9.26800307 185.33836555 9.56129646 C187.19879831 9.66580451 189.05958141 9.76428215 190.92067909 9.85619164 C193.46676581 9.98286661 196.01067815 10.13150728 198.55523682 10.28552246 C199.28617274 10.31667153 200.01710867 10.34782059 200.77019417 10.37991357 C206.9250478 10.79211726 212.01576662 12.92594251 216.86331177 16.75445557 C223.93124239 25.052498 224.22738256 33.85700931 223.42825317 44.29400635 C223.28630397 45.9866185 223.14352862 47.67916152 223.00003052 49.37164307 C222.8573039 51.19429659 222.71592713 53.01705618 222.57571411 54.83990479 C222.23617894 59.21086761 221.88361146 63.58062558 221.52737427 67.95025635 C220.95191602 75.09884838 220.42735293 82.25056251 219.91107368 89.40364552 C219.34607827 97.22484953 218.76439334 105.04470949 218.17242241 112.86391735 C217.79711482 117.82594457 217.42813241 122.78825214 217.0743103 127.75186157 C216.73420819 132.51153162 216.37303508 137.26917939 215.99699402 142.02614021 C215.86011466 143.80185358 215.73045788 145.57814085 215.6085968 147.35494804 C214.13503384 168.6881976 214.13503384 168.6881976 206.00003052 176.12164307 C198.3151904 181.19363754 191.623252 181.85911567 182.56253052 182.55914307 C181.12880821 182.69678475 179.69530293 182.836701 178.26199341 182.97857666 C169.61188698 183.79071528 161.03094316 184.23872425 152.34013081 184.28205204 C144.49264615 184.32327307 136.65406085 184.49841171 128.81253052 184.80914307 C128.08874332 184.83757923 127.36495613 184.8660154 126.61923599 184.89531326 C106.913351 185.74801383 91.76002436 188.40584816 77.769104 203.65039062 C74.01038656 208.01818607 70.32723838 212.48297195 67.12794495 217.28086853 C63.86344437 221.96000673 63.86344437 221.96000673 60.81503296 222.65127563 C57.91611869 222.69877142 55.48774599 222.4905008 52.87503052 221.18414307 C51.73472379 217.76322287 51.54491289 214.78422554 51.31253052 211.18414307 C51.18684692 209.32789307 51.18684692 209.32789307 51.05862427 207.43414307 C50.78732817 202.35327981 50.83821512 197.27051205 50.87503052 192.18414307 C50.14614624 192.244729 49.41726196 192.30531494 48.66629028 192.36773682 C4.27308377 196.00394496 4.27308377 196.00394496 -5.17575073 188.57086182 C-10.61255858 183.49425656 -13.33044154 178.26113109 -14.0239563 170.79063416 C-14.14732361 169.52485535 -14.27069092 168.25907654 -14.39779663 166.9549408 C-14.5209608 165.56481001 -14.64387735 164.17465726 -14.76657104 162.78448486 C-14.90555313 161.31044091 -15.04557469 159.83649466 -15.18655396 158.36264038 C-15.56528151 154.36970075 -15.92880438 150.37551117 -16.28909016 146.38087058 C-16.66895698 142.19233817 -17.06116304 138.00495881 -17.4515686 133.81739807 C-18.10542766 126.78293712 -18.74949244 119.74763128 -19.38766479 112.71173096 C-20.12423914 104.59218288 -20.87583124 96.4741331 -21.63563561 88.35672826 C-22.36761051 80.5332216 -23.08925056 72.70879485 -23.8061142 64.88389015 C-24.11066961 61.56124788 -24.41873071 58.23895875 -24.7296524 54.91690636 C-25.09590579 50.99832355 -25.4530368 47.07900997 -25.8033371 43.15896988 C-25.93284556 41.72566906 -26.06538833 40.29263844 -26.20129395 38.85993004 C-28.1984361 17.74616478 -28.1984361 17.74616478 -22.12496948 9.18414307 C-15.59155462 2.10743784 -9.64751523 -0.17416921 0 0 Z " fill="#1676FE" transform="translate(29.124969482421875,18.81585693359375)"/>
<path d="M0 0 C3.58061882 0.6126215 6.66682277 1.57670411 10 3.01171875 C11.05445312 3.4607959 12.10890625 3.90987305 13.1953125 4.37255859 C14.0910498 4.75658844 14.0910498 4.75658844 15.00488281 5.14837646 C18.95315918 6.8337136 22.91559719 8.48554804 26.875 10.14453125 C28.70446892 10.91200966 30.53389517 11.67958977 32.36328125 12.44726562 C33.75667725 13.03181519 33.75667725 13.03181519 35.17822266 13.62817383 C37.04531323 14.41180909 38.91217885 15.19598056 40.77880859 15.98071289 C51.78442524 20.60672681 62.8065501 25.17351567 73.92016602 29.53511047 C74.70576904 29.84538681 75.49137207 30.15566315 76.30078125 30.4753418 C76.99341064 30.74678513 77.68604004 31.01822845 78.3996582 31.29789734 C80 32 80 32 81 33 C81.08726223 34.78071246 81.10699041 36.5648314 81.09765625 38.34765625 C81.09282227 39.96704102 81.09282227 39.96704102 81.08789062 41.61914062 C81.07532227 43.32360352 81.07532227 43.32360352 81.0625 45.0625 C81.05798828 46.20267578 81.05347656 47.34285156 81.04882812 48.51757812 C81.03699747 51.34510351 81.0205141 54.1725264 81 57 C70.45457789 61.97108066 59.76230401 66.52314185 49 71 C47.117115 71.78367999 45.23430709 72.56754523 43.3515625 73.3515625 C42.33989014 73.77284424 41.32821777 74.19412598 40.28588867 74.62817383 C37.35362582 75.8523647 34.4236323 77.08183391 31.49446106 78.31340027 C28.95413499 79.38025947 26.41192105 80.44257095 23.86938477 81.50415039 C22.56456015 82.05012212 21.26054124 82.59802286 19.95727539 83.14770508 C18.04517339 83.95371066 16.13035054 84.75290732 14.21484375 85.55078125 C13.09198975 86.02169189 11.96913574 86.49260254 10.81225586 86.9777832 C8 88 8 88 5 88 C4.67 79.75 4.34 71.5 4 63 C10.48039078 60.2119249 16.80476548 57.66499521 23.5859375 55.73828125 C26.87886243 54.73122168 30.01866906 53.42709683 33.19921875 52.11328125 C37.81056312 50.2803201 42.50515407 48.68012404 47.19140625 47.05078125 C49.86735503 46.27081058 49.86735503 46.27081058 51 45 C50.23816406 44.74605469 49.47632813 44.49210937 48.69140625 44.23046875 C34.5 39.5 34.5 39.5 32.3515625 38.78125 C30.57751929 38.19186687 28.80104654 37.60978943 27.0234375 37.03125 C22.7329788 35.62593847 18.52331674 34.22556756 14.375 32.4375 C10.01721187 30.58140505 5.55181565 29.29136017 1 28 C0.11504503 18.62895894 -0.1170409 9.40228594 0 0 Z " fill="#FAFCFF" transform="translate(54,67)"/>
<path d="M0 0 C0 5.94 0 11.88 0 18 C-43.19589977 20.29612756 -43.19589977 20.29612756 -62 20 C-62 14.06 -62 8.12 -62 2 C-41.3093288 0.745341 -20.73833227 -0.34985003 0 0 Z " fill="#F8FAFF" transform="translate(206,151)"/>
</svg>
